<?xml version="1.0" encoding="UTF-8"?>
<svg viewBox="0 0 62.5 62.5" xmlns="http://www.w3.org/2000/svg">
 <g transform="matrix(1.25 0 0 1.25 -74.813 -120.16)">
  <path d="m91.845 111.42c0 3.7754-3.1533 6.834-7.0459 6.834s-7.0454-3.0586-7.0454-6.834c0-3.7734 3.1543-6.833 7.0454-6.833s7.0459 3.0596 7.0459 6.833z"/>
  <path d="m100.92 124.35c0 3.7754-3.1543 6.834-7.0459 6.834s-7.0459-3.0586-7.0459-6.834c0-3.7734 3.1543-6.833 7.0459-6.833s7.0459 3.0596 7.0459 6.833z"/>
  <path d="m82.875 124.41c0 1.3818-0.42285 2.668-1.1504 3.7432-1.2588 1.8613-3.4297 3.0898-5.8965 3.0898-3.8916 0-7.0449-3.0586-7.0449-6.833s3.1533-6.834 7.0449-6.834 7.0469 3.0601 7.0469 6.834z"/>
  <path d="m93.063 137.67c-3.4795 0.00195-5.3096-2.8281-6.2705-5.6572s-1.0508-5.6611-1.0508-5.6611l-1.7754-0.01465s-0.33301 11.324-7.29 11.33l16.387 0.00293z"/>
  <path d="m80.01 116.44c3.957 3.9575 3.957 9.8989 3.957 9.8989l1.7754 0.01465s0-6.0674 3.8467-9.9136"/>
  <path d="m80.802 129.15c3.957-3.957 9.8994-3.957 9.8994-3.957l0.01367-1.7754s-6.0674 0-9.9131-3.8462"/>
  <path d="m88.738 129.18c-3.957-3.957-9.8994-3.957-9.8994-3.957l-0.01416-1.7754s6.0679 0 9.9136-3.8462"/>
 </g>
</svg>
