<?xml version="1.0" encoding="UTF-8" standalone="no"?>
<!DOCTYPE svg PUBLIC "-//W3C//DTD SVG 1.1//EN"
 "http://www.w3.org/Graphics/SVG/1.1/DTD/svg11.dtd">
<!-- Generated by graphviz version 3.0.0 (20220226.1711)
 -->
<!-- Title: G Pages: 1 -->
<svg width="3170pt" height="195pt"
 viewBox="0.00 0.00 3170.24 194.72" xmlns="http://www.w3.org/2000/svg" xmlns:xlink="http://www.w3.org/1999/xlink">
<g id="graph0" class="graph" transform="scale(1 1) rotate(0) translate(4 190.72)">
<title>G</title>
<polygon fill="white" stroke="transparent" points="-4,4 -4,-190.72 3166.24,-190.72 3166.24,4 -4,4"/>
<!-- Attack, Charge -->
<g id="node1" class="node">
<title>Attack, Charge</title>
<ellipse fill="none" stroke="black" cx="65.64" cy="-90" rx="65.79" ry="18"/>
<text text-anchor="middle" x="65.64" y="-86.3" font-family="Times New Roman,serif" font-size="14.00">Attack, Charge</text>
</g>
<!-- Attack, Weapon -->
<g id="node2" class="node">
<title>Attack, Weapon</title>
<ellipse fill="none" stroke="black" cx="293.64" cy="-162" rx="70.39" ry="18"/>
<text text-anchor="middle" x="293.64" y="-158.3" font-family="Times New Roman,serif" font-size="14.00">Attack, Weapon</text>
</g>
<!-- Attack, Weapon&#45;&gt;Attack, Charge -->
<g id="edge1" class="edge">
<title>Attack, Weapon&#45;&gt;Attack, Charge</title>
<path fill="none" stroke="black" d="M239.74,-150.37C159.95,-132.99 134.68,-126.14 104.15,-110.93"/>
<polygon fill="black" stroke="black" points="105.38,-107.63 94.89,-106.17 102.18,-113.86 105.38,-107.63"/>
</g>
<!-- Attack, Sweep -->
<g id="node3" class="node">
<title>Attack, Sweep</title>
<ellipse fill="none" stroke="black" cx="212.64" cy="-90" rx="63.89" ry="18"/>
<text text-anchor="middle" x="212.64" y="-86.3" font-family="Times New Roman,serif" font-size="14.00">Attack, Sweep</text>
</g>
<!-- Attack, Weapon&#45;&gt;Attack, Sweep -->
<g id="edge2" class="edge">
<title>Attack, Weapon&#45;&gt;Attack, Sweep</title>
<path fill="none" stroke="black" d="M264.7,-145.34C244.24,-133.24 235.09,-126.41 227.68,-116.36"/>
<polygon fill="black" stroke="black" points="230.57,-114.38 222.19,-107.9 224.69,-118.19 230.57,-114.38"/>
</g>
<!-- Attack, Vengeance -->
<g id="node4" class="node">
<title>Attack, Vengeance</title>
<ellipse fill="none" stroke="black" cx="373.64" cy="-90" rx="79.09" ry="18"/>
<text text-anchor="middle" x="373.64" y="-86.3" font-family="Times New Roman,serif" font-size="14.00">Attack, Vengeance</text>
</g>
<!-- Attack, Weapon&#45;&gt;Attack, Vengeance -->
<g id="edge3" class="edge">
<title>Attack, Weapon&#45;&gt;Attack, Vengeance</title>
<path fill="none" stroke="black" d="M303.46,-143.94C311.1,-131.16 318.2,-124.28 337.08,-112.18"/>
<polygon fill="black" stroke="black" points="338.97,-115.12 345.59,-106.85 335.26,-109.19 338.97,-115.12"/>
</g>
<!-- Attack, Dual&#45;Wield -->
<g id="node5" class="node">
<title>Attack, Dual&#45;Wield</title>
<ellipse fill="none" stroke="black" cx="551.64" cy="-90" rx="80.69" ry="18"/>
<text text-anchor="middle" x="551.64" y="-86.3" font-family="Times New Roman,serif" font-size="14.00">Attack, Dual&#45;Wield</text>
</g>
<!-- Attack, Weapon&#45;&gt;Attack, Dual&#45;Wield -->
<g id="edge4" class="edge">
<title>Attack, Weapon&#45;&gt;Attack, Dual&#45;Wield</title>
<path fill="none" stroke="black" d="M328.84,-146.26C366.86,-129.96 391.96,-123.27 482.53,-104.32"/>
<polygon fill="black" stroke="black" points="483.32,-107.73 492.4,-102.26 481.89,-100.88 483.32,-107.73"/>
</g>
<!-- Attack, Dual&#45;Wield Master -->
<g id="node6" class="node">
<title>Attack, Dual&#45;Wield Master</title>
<ellipse fill="none" stroke="black" cx="551.64" cy="-18" rx="107.78" ry="18"/>
<text text-anchor="middle" x="551.64" y="-14.3" font-family="Times New Roman,serif" font-size="14.00">Attack, Dual&#45;Wield Master</text>
</g>
<!-- Attack, Dual&#45;Wield&#45;&gt;Attack, Dual&#45;Wield Master -->
<g id="edge5" class="edge">
<title>Attack, Dual&#45;Wield&#45;&gt;Attack, Dual&#45;Wield Master</title>
<path fill="none" stroke="black" d="M544.76,-71.96C540.94,-61.01 539.92,-54.38 541.7,-45.88"/>
<polygon fill="black" stroke="black" points="545.12,-46.66 544.57,-36.08 538.4,-44.69 545.12,-46.66"/>
</g>
<!-- Attack, Mystic Aura -->
<g id="node7" class="node">
<title>Attack, Mystic Aura</title>
<ellipse fill="none" stroke="black" cx="734.64" cy="-90" rx="84.49" ry="18"/>
<text text-anchor="middle" x="734.64" y="-86.3" font-family="Times New Roman,serif" font-size="14.00">Attack, Mystic Aura</text>
</g>
<!-- Attack, Mystic -->
<g id="node8" class="node">
<title>Attack, Mystic</title>
<ellipse fill="none" stroke="black" cx="1381.64" cy="-162" rx="64.19" ry="18"/>
<text text-anchor="middle" x="1381.64" y="-158.3" font-family="Times New Roman,serif" font-size="14.00">Attack, Mystic</text>
</g>
<!-- Attack, Mystic&#45;&gt;Attack, Mystic Aura -->
<g id="edge6" class="edge">
<title>Attack, Mystic&#45;&gt;Attack, Mystic Aura</title>
<path fill="none" stroke="black" d="M1318.69,-158.12C981.95,-137.35 928.62,-132.96 802.62,-105.32"/>
<polygon fill="black" stroke="black" points="803.14,-101.85 792.62,-103.11 801.63,-108.68 803.14,-101.85"/>
</g>
<!-- Attack, Mystic Amplification -->
<g id="node9" class="node">
<title>Attack, Mystic Amplification</title>
<ellipse fill="none" stroke="black" cx="952.64" cy="-90" rx="115.88" ry="18"/>
<text text-anchor="middle" x="952.64" y="-86.3" font-family="Times New Roman,serif" font-size="14.00">Attack, Mystic Amplification</text>
</g>
<!-- Attack, Mystic&#45;&gt;Attack, Mystic Amplification -->
<g id="edge7" class="edge">
<title>Attack, Mystic&#45;&gt;Attack, Mystic Amplification</title>
<path fill="none" stroke="black" d="M1320.53,-156.21C1126.14,-137.72 1083.09,-132.24 1011.32,-109.56"/>
<polygon fill="black" stroke="black" points="1012.05,-106.12 1001.46,-106.4 1009.91,-112.79 1012.05,-106.12"/>
</g>
<!-- Attack, Mystic Cone -->
<g id="node10" class="node">
<title>Attack, Mystic Cone</title>
<ellipse fill="none" stroke="black" cx="1172.64" cy="-90" rx="86.38" ry="18"/>
<text text-anchor="middle" x="1172.64" y="-86.3" font-family="Times New Roman,serif" font-size="14.00">Attack, Mystic Cone</text>
</g>
<!-- Attack, Mystic&#45;&gt;Attack, Mystic Cone -->
<g id="edge8" class="edge">
<title>Attack, Mystic&#45;&gt;Attack, Mystic Cone</title>
<path fill="none" stroke="black" d="M1329.88,-151.19C1258.28,-136.01 1235.4,-129.4 1207.61,-112.9"/>
<polygon fill="black" stroke="black" points="1209.11,-109.72 1198.77,-107.44 1205.44,-115.67 1209.11,-109.72"/>
</g>
<!-- Attack, Mystic Confusion -->
<g id="node11" class="node">
<title>Attack, Mystic Confusion</title>
<ellipse fill="none" stroke="black" cx="1381.64" cy="-90" rx="104.78" ry="18"/>
<text text-anchor="middle" x="1381.64" y="-86.3" font-family="Times New Roman,serif" font-size="14.00">Attack, Mystic Confusion</text>
</g>
<!-- Attack, Mystic&#45;&gt;Attack, Mystic Confusion -->
<g id="edge9" class="edge">
<title>Attack, Mystic&#45;&gt;Attack, Mystic Confusion</title>
<path fill="none" stroke="black" d="M1374.38,-144.1C1370.77,-134.01 1370.06,-127.56 1372.27,-118.03"/>
<polygon fill="black" stroke="black" points="1375.69,-118.81 1375.12,-108.23 1368.97,-116.86 1375.69,-118.81"/>
</g>
<!-- Attack, Mystic Entangle -->
<g id="node12" class="node">
<title>Attack, Mystic Entangle</title>
<ellipse fill="none" stroke="black" cx="1601.64" cy="-90" rx="97.48" ry="18"/>
<text text-anchor="middle" x="1601.64" y="-86.3" font-family="Times New Roman,serif" font-size="14.00">Attack, Mystic Entangle</text>
</g>
<!-- Attack, Mystic&#45;&gt;Attack, Mystic Entangle -->
<g id="edge10" class="edge">
<title>Attack, Mystic&#45;&gt;Attack, Mystic Entangle</title>
<path fill="none" stroke="black" d="M1426.93,-149.13C1454.11,-141.06 1479.41,-132.52 1546.05,-109.35"/>
<polygon fill="black" stroke="black" points="1547.44,-112.58 1555.73,-105.99 1545.14,-105.97 1547.44,-112.58"/>
</g>
<!-- Attack, Mystic Deprivation -->
<g id="node13" class="node">
<title>Attack, Mystic Deprivation</title>
<ellipse fill="none" stroke="black" cx="1825.64" cy="-90" rx="108.58" ry="18"/>
<text text-anchor="middle" x="1825.64" y="-86.3" font-family="Times New Roman,serif" font-size="14.00">Attack, Mystic Deprivation</text>
</g>
<!-- Attack, Mystic&#45;&gt;Attack, Mystic Deprivation -->
<g id="edge11" class="edge">
<title>Attack, Mystic&#45;&gt;Attack, Mystic Deprivation</title>
<path fill="none" stroke="black" d="M1438.78,-170.47C1635.33,-199.13 1661.4,-194.72 1789.77,-113.02"/>
<polygon fill="black" stroke="black" points="1791.83,-115.86 1798.38,-107.53 1788.07,-109.96 1791.83,-115.86"/>
</g>
<!-- Attack, Mystic Dual&#45;Shot -->
<g id="node14" class="node">
<title>Attack, Mystic Dual&#45;Shot</title>
<ellipse fill="none" stroke="black" cx="2055.64" cy="-90" rx="103.18" ry="18"/>
<text text-anchor="middle" x="2055.64" y="-86.3" font-family="Times New Roman,serif" font-size="14.00">Attack, Mystic Dual&#45;Shot</text>
</g>
<!-- Attack, Mystic&#45;&gt;Attack, Mystic Dual&#45;Shot -->
<g id="edge12" class="edge">
<title>Attack, Mystic&#45;&gt;Attack, Mystic Dual&#45;Shot</title>
<path fill="none" stroke="black" d="M1446.12,-161.35C1806.34,-157.61 1853.52,-154.76 1997.02,-109.07"/>
<polygon fill="black" stroke="black" points="1998.16,-112.38 2006.61,-105.99 1996.02,-105.71 1998.16,-112.38"/>
</g>
<!-- Attack, Mystic Dual&#45;Wield Master -->
<g id="node15" class="node">
<title>Attack, Mystic Dual&#45;Wield Master</title>
<ellipse fill="none" stroke="black" cx="2055.64" cy="-18" rx="135.38" ry="18"/>
<text text-anchor="middle" x="2055.64" y="-14.3" font-family="Times New Roman,serif" font-size="14.00">Attack, Mystic Dual&#45;Wield Master</text>
</g>
<!-- Attack, Mystic Dual&#45;Shot&#45;&gt;Attack, Mystic Dual&#45;Wield Master -->
<g id="edge13" class="edge">
<title>Attack, Mystic Dual&#45;Shot&#45;&gt;Attack, Mystic Dual&#45;Wield Master</title>
<path fill="none" stroke="black" d="M2062.41,-71.98C2066.21,-60.98 2067.3,-54.31 2065.69,-46.1"/>
<polygon fill="black" stroke="black" points="2069,-44.95 2062.88,-36.3 2062.28,-46.88 2069,-44.95"/>
</g>
<!-- Momentum Aura -->
<g id="node16" class="node">
<title>Momentum Aura</title>
<ellipse fill="none" stroke="black" cx="2248.64" cy="-90" rx="72.29" ry="18"/>
<text text-anchor="middle" x="2248.64" y="-86.3" font-family="Times New Roman,serif" font-size="14.00">Momentum Aura</text>
</g>
<!-- Momentum -->
<g id="node17" class="node">
<title>Momentum</title>
<ellipse fill="none" stroke="black" cx="2248.64" cy="-162" rx="51.99" ry="18"/>
<text text-anchor="middle" x="2248.64" y="-158.3" font-family="Times New Roman,serif" font-size="14.00">Momentum</text>
</g>
<!-- Momentum&#45;&gt;Momentum Aura -->
<g id="edge14" class="edge">
<title>Momentum&#45;&gt;Momentum Aura</title>
<path fill="none" stroke="black" d="M2255.73,-144.01C2259.52,-133.32 2260.4,-126.75 2258.36,-117.72"/>
<polygon fill="black" stroke="black" points="2261.7,-116.69 2255.5,-108.1 2254.99,-118.68 2261.7,-116.69"/>
</g>
<!-- Lend Mass Distraction -->
<g id="node18" class="node">
<title>Lend Mass Distraction</title>
<ellipse fill="none" stroke="black" cx="2431.64" cy="-90" rx="92.88" ry="18"/>
<text text-anchor="middle" x="2431.64" y="-86.3" font-family="Times New Roman,serif" font-size="14.00">Lend Mass Distraction</text>
</g>
<!-- Lend Distraction -->
<g id="node19" class="node">
<title>Lend Distraction</title>
<ellipse fill="none" stroke="black" cx="2507.64" cy="-162" rx="71.49" ry="18"/>
<text text-anchor="middle" x="2507.64" y="-158.3" font-family="Times New Roman,serif" font-size="14.00">Lend Distraction</text>
</g>
<!-- Lend Distraction&#45;&gt;Lend Mass Distraction -->
<g id="edge15" class="edge">
<title>Lend Distraction&#45;&gt;Lend Mass Distraction</title>
<path fill="none" stroke="black" d="M2498.56,-144.05C2491.61,-131.64 2485.03,-124.79 2467.9,-113.15"/>
<polygon fill="black" stroke="black" points="2469.52,-110.02 2459.25,-107.43 2465.65,-115.86 2469.52,-110.02"/>
</g>
<!-- Lend Confusion -->
<g id="node20" class="node">
<title>Lend Confusion</title>
<ellipse fill="none" stroke="black" cx="2611.64" cy="-90" rx="69.59" ry="18"/>
<text text-anchor="middle" x="2611.64" y="-86.3" font-family="Times New Roman,serif" font-size="14.00">Lend Confusion</text>
</g>
<!-- Lend Distraction&#45;&gt;Lend Confusion -->
<g id="edge16" class="edge">
<title>Lend Distraction&#45;&gt;Lend Confusion</title>
<path fill="none" stroke="black" d="M2542.11,-146.22C2569.53,-133.37 2581.27,-126.46 2591.65,-115.58"/>
<polygon fill="black" stroke="black" points="2594.53,-117.6 2598.43,-107.75 2589.24,-113.02 2594.53,-117.6"/>
</g>
<!-- Lend Mass Confusion -->
<g id="node21" class="node">
<title>Lend Mass Confusion</title>
<ellipse fill="none" stroke="black" cx="2611.64" cy="-18" rx="91.78" ry="18"/>
<text text-anchor="middle" x="2611.64" y="-14.3" font-family="Times New Roman,serif" font-size="14.00">Lend Mass Confusion</text>
</g>
<!-- Lend Confusion&#45;&gt;Lend Mass Confusion -->
<g id="edge17" class="edge">
<title>Lend Confusion&#45;&gt;Lend Mass Confusion</title>
<path fill="none" stroke="black" d="M2618.53,-71.96C2622.35,-61.01 2623.37,-54.38 2621.59,-45.88"/>
<polygon fill="black" stroke="black" points="2624.89,-44.69 2618.72,-36.08 2618.17,-46.66 2624.89,-44.69"/>
</g>
<!-- Creature Link -->
<g id="node22" class="node">
<title>Creature Link</title>
<ellipse fill="none" stroke="black" cx="2758.64" cy="-90" rx="59.59" ry="18"/>
<text text-anchor="middle" x="2758.64" y="-86.3" font-family="Times New Roman,serif" font-size="14.00">Creature Link</text>
</g>
<!-- Creature Connection -->
<g id="node23" class="node">
<title>Creature Connection</title>
<ellipse fill="none" stroke="black" cx="2833.64" cy="-162" rx="85.59" ry="18"/>
<text text-anchor="middle" x="2833.64" y="-158.3" font-family="Times New Roman,serif" font-size="14.00">Creature Connection</text>
</g>
<!-- Creature Connection&#45;&gt;Creature Link -->
<g id="edge18" class="edge">
<title>Creature Connection&#45;&gt;Creature Link</title>
<path fill="none" stroke="black" d="M2824.75,-143.93C2817.73,-131.09 2811.06,-124.2 2792.97,-111.97"/>
<polygon fill="black" stroke="black" points="2794.75,-108.95 2784.48,-106.37 2790.9,-114.8 2794.75,-108.95"/>
</g>
<!-- Creature Mastery -->
<g id="node24" class="node">
<title>Creature Mastery</title>
<ellipse fill="none" stroke="black" cx="2909.64" cy="-90" rx="73.39" ry="18"/>
<text text-anchor="middle" x="2909.64" y="-86.3" font-family="Times New Roman,serif" font-size="14.00">Creature Mastery</text>
</g>
<!-- Creature Connection&#45;&gt;Creature Mastery -->
<g id="edge19" class="edge">
<title>Creature Connection&#45;&gt;Creature Mastery</title>
<path fill="none" stroke="black" d="M2862,-144.76C2880.29,-133.29 2888.79,-126.57 2895.46,-117.05"/>
<polygon fill="black" stroke="black" points="2898.61,-118.59 2900.8,-108.22 2892.62,-114.97 2898.61,-118.59"/>
</g>
<!-- Scrying, Advanced -->
<g id="node25" class="node">
<title>Scrying, Advanced</title>
<ellipse fill="none" stroke="black" cx="3081.64" cy="-90" rx="80.69" ry="18"/>
<text text-anchor="middle" x="3081.64" y="-86.3" font-family="Times New Roman,serif" font-size="14.00">Scrying, Advanced</text>
</g>
<!-- Scrying -->
<g id="node26" class="node">
<title>Scrying</title>
<ellipse fill="none" stroke="black" cx="3081.64" cy="-162" rx="38.19" ry="18"/>
<text text-anchor="middle" x="3081.64" y="-158.3" font-family="Times New Roman,serif" font-size="14.00">Scrying</text>
</g>
<!-- Scrying&#45;&gt;Scrying, Advanced -->
<g id="edge20" class="edge">
<title>Scrying&#45;&gt;Scrying, Advanced</title>
<path fill="none" stroke="black" d="M3088.63,-144.08C3092.47,-133.26 3093.41,-126.67 3091.45,-117.81"/>
<polygon fill="black" stroke="black" points="3094.73,-116.56 3088.53,-107.96 3088.02,-118.55 3094.73,-116.56"/>
</g>
</g>
</svg>
